<svg version="1.1" id="Layer_1" xmlns="http://www.w3.org/2000/svg" xmlns:xlink="http://www.w3.org/1999/xlink" x="0px" y="0px"
	 width="100%" viewBox="0 0 640 595" enable-background="new 0 0 640 595" xml:space="preserve">
<path fill="transparent" opacitySector="1.000000" stroke="none" 
	d="
M409.000000,596.000000 
	C272.666687,596.000000 136.833389,596.000000 1.000055,596.000000 
	C1.000036,397.666718 1.000036,199.333450 1.000018,1.000134 
	C214.333237,1.000090 427.666473,1.000090 640.999756,1.000045 
	C640.999878,199.333191 640.999878,397.666382 640.999939,595.999756 
	C563.833313,596.000000 486.666656,596.000000 409.000000,596.000000 
M313.360229,42.734447 
	C302.192749,44.394493 293.314178,50.083004 285.449432,57.959259 
	C217.394958,126.113350 149.266983,194.194031 81.167633,262.303314 
	C79.519196,263.952026 77.873611,265.613922 76.353218,267.378662 
	C52.871166,294.634735 67.794975,337.527710 103.128532,344.065857 
	C108.585785,345.075714 114.226601,345.093536 119.898445,345.580078 
	C119.898445,347.680084 119.898453,349.507874 119.898453,351.335663 
	C119.898476,399.825958 119.854362,448.316284 119.913719,496.806488 
	C119.954704,530.285889 143.705444,553.949707 177.195999,553.993469 
	C202.524216,554.026550 227.852509,554.002014 253.180771,553.999329 
	C266.224854,553.997925 271.791077,548.498230 271.793457,535.577759 
	C271.800446,497.252106 271.773254,458.926422 271.807465,420.600800 
	C271.822693,403.551727 282.116180,393.306335 299.204620,393.258942 
	C313.368347,393.219666 327.546234,393.647461 341.692566,393.149536 
	C359.273834,392.530670 370.597809,405.195099 370.348206,421.559357 
	C369.761230,460.042725 370.141327,498.541107 370.172943,537.033386 
	C370.181885,547.943359 376.287018,553.984009 387.217438,553.993042 
	C413.378876,554.014648 439.540680,554.073181 465.701355,553.931213 
	C470.321442,553.906128 475.057800,553.481262 479.534119,552.392578 
	C505.274719,546.132629 521.977722,524.744629 522.037476,497.860931 
	C522.146423,448.870972 522.069031,399.880615 522.069336,350.890411 
	C522.069336,349.101410 522.069275,347.312408 522.069275,345.051849 
	C525.284180,345.051849 528.078003,345.144989 530.864075,345.036530 
	C547.946960,344.371796 561.195374,336.839355 570.097778,322.276123 
	C581.798645,303.135101 578.505188,280.032104 561.872803,263.386932 
	C493.205811,194.667053 424.497528,125.988426 355.800171,57.298889 
	C354.622345,56.121193 353.441620,54.937935 352.177399,53.856434 
	C341.204010,44.468994 328.588684,40.557686 313.360229,42.734447 
z"/>
<path fill="#fff" opacitySector="1.000000" stroke="none" 
	d="
M313.790161,42.643089 
	C328.588684,40.557686 341.204010,44.468994 352.177399,53.856434 
	C353.441620,54.937935 354.622345,56.121193 355.800171,57.298889 
	C424.497528,125.988426 493.205811,194.667053 561.872803,263.386932 
	C578.505188,280.032104 581.798645,303.135101 570.097778,322.276123 
	C561.195374,336.839355 547.946960,344.371796 530.864075,345.036530 
	C528.078003,345.144989 525.284180,345.051849 522.069275,345.051849 
	C522.069275,347.312408 522.069336,349.101410 522.069336,350.890411 
	C522.069031,399.880615 522.146423,448.870972 522.037476,497.860931 
	C521.977722,524.744629 505.274719,546.132629 479.534119,552.392578 
	C475.057800,553.481262 470.321442,553.906128 465.701355,553.931213 
	C439.540680,554.073181 413.378876,554.014648 387.217438,553.993042 
	C376.287018,553.984009 370.181885,547.943359 370.172943,537.033386 
	C370.141327,498.541107 369.761230,460.042725 370.348206,421.559357 
	C370.597809,405.195099 359.273834,392.530670 341.692566,393.149536 
	C327.546234,393.647461 313.368347,393.219666 299.204620,393.258942 
	C282.116180,393.306335 271.822693,403.551727 271.807465,420.600800 
	C271.773254,458.926422 271.800446,497.252106 271.793457,535.577759 
	C271.791077,548.498230 266.224854,553.997925 253.180771,553.999329 
	C227.852509,554.002014 202.524216,554.026550 177.195999,553.993469 
	C143.705444,553.949707 119.954704,530.285889 119.913719,496.806488 
	C119.854362,448.316284 119.898476,399.825958 119.898453,351.335663 
	C119.898453,349.507874 119.898445,347.680084 119.898445,345.580078 
	C114.226601,345.093536 108.585785,345.075714 103.128532,344.065857 
	C67.794975,337.527710 52.871166,294.634735 76.353218,267.378662 
	C77.873611,265.613922 79.519196,263.952026 81.167633,262.303314 
	C149.266983,194.194031 217.394958,126.113350 285.449432,57.959259 
	C293.314178,50.083004 302.192749,44.394493 313.790161,42.643089 
z"/>
</svg>