<svg version="1.1" id="Layer_1" xmlns="http://www.w3.org/2000/svg" xmlns:xlink="http://www.w3.org/1999/xlink" x="0px" y="0px"
	 width="100%" viewBox="0 0 640 595" enable-background="new 0 0 640 595" xml:space="preserve">
<path fill="transparent" opacity="1.000000" stroke="none" 
	d="
M318.000000,596.000000 
	C212.000015,596.000000 106.500038,596.000000 1.000042,596.000000 
	C1.000028,397.666718 1.000028,199.333435 1.000014,1.000122 
	C214.333237,1.000082 427.666473,1.000082 640.999756,1.000041 
	C640.999878,199.333206 640.999878,397.666412 640.999939,595.999817 
	C533.500000,596.000000 426.000000,596.000000 318.000000,596.000000 
M275.456329,235.469635 
	C275.329559,238.457825 275.404053,241.471558 275.028900,244.428223 
	C274.463715,248.882370 271.835480,251.554565 267.291565,252.077606 
	C265.314697,252.305161 263.315216,252.440292 261.325958,252.441086 
	C212.666504,252.460602 164.006607,252.357925 115.348106,252.572983 
	C108.795723,252.601929 101.849991,253.099915 95.775887,255.291595 
	C76.681351,262.181305 67.052422,276.618713 65.136757,296.638367 
	C63.785583,310.758911 74.004608,329.273743 87.402710,337.032440 
	C96.055237,342.043030 105.352905,343.558075 115.117233,343.553680 
	C163.776672,343.531769 212.436127,343.537415 261.095581,343.563019 
	C263.416077,343.564240 265.766632,343.664551 268.050110,344.040833 
	C271.867004,344.669800 274.244843,347.083435 274.943756,350.849762 
	C275.365173,353.120544 275.435425,355.481262 275.436646,357.801666 
	C275.462708,406.461121 275.367310,455.120941 275.566711,503.779572 
	C275.592224,510.001923 276.293579,516.471802 278.109589,522.388855 
	C283.226196,539.060120 295.173309,549.336182 311.883331,552.735352 
	C328.785828,556.173706 343.693542,551.088501 355.371002,537.891785 
	C363.881622,528.273987 366.586029,516.767517 366.569702,504.254944 
	C366.505951,455.428955 366.538391,406.602783 366.561310,357.776703 
	C366.562317,355.622040 366.668030,353.444244 366.991577,351.317810 
	C367.638458,347.066162 370.220123,344.563721 374.468231,343.967438 
	C376.599792,343.668213 378.774231,343.561371 380.929382,343.560394 
	C429.588837,343.538635 478.248688,343.633392 526.907288,343.432373 
	C533.129150,343.406708 539.604919,342.703644 545.513611,340.867859 
	C561.950317,335.761200 572.155151,323.973572 575.659241,307.478851 
	C579.205627,290.785461 574.348145,275.943817 561.559021,264.188263 
	C551.838074,255.252914 540.021729,252.400375 527.127197,252.422562 
	C478.301270,252.506546 429.475067,252.457901 380.648987,252.455154 
	C369.244720,252.454514 366.545898,249.774841 366.545135,238.442841 
	C366.541718,189.783386 366.636292,141.123535 366.431427,92.464943 
	C366.404510,86.076775 365.853851,79.356323 363.826111,73.372505 
	C357.207520,53.841110 342.696136,43.567184 322.462311,42.376408 
	C308.048706,41.528164 291.861267,47.996361 281.830017,64.763046 
	C276.776337,73.209991 275.451294,82.418991 275.452850,92.000336 
	C275.460480,139.493301 275.456390,186.986252 275.456329,235.469635 
z"/>
<path fill="#FFF" opacity="1.000000" stroke="none" 
	d="
M275.456360,234.974426 
	C275.456390,186.986252 275.460480,139.493301 275.452850,92.000336 
	C275.451294,82.418991 276.776337,73.209991 281.830017,64.763046 
	C291.861267,47.996361 308.048706,41.528164 322.462311,42.376408 
	C342.696136,43.567184 357.207520,53.841110 363.826111,73.372505 
	C365.853851,79.356323 366.404510,86.076775 366.431427,92.464943 
	C366.636292,141.123535 366.541718,189.783386 366.545135,238.442841 
	C366.545898,249.774841 369.244720,252.454514 380.648987,252.455154 
	C429.475067,252.457901 478.301270,252.506546 527.127197,252.422562 
	C540.021729,252.400375 551.838074,255.252914 561.559021,264.188263 
	C574.348145,275.943817 579.205627,290.785461 575.659241,307.478851 
	C572.155151,323.973572 561.950317,335.761200 545.513611,340.867859 
	C539.604919,342.703644 533.129150,343.406708 526.907288,343.432373 
	C478.248688,343.633392 429.588837,343.538635 380.929382,343.560394 
	C378.774231,343.561371 376.599792,343.668213 374.468231,343.967438 
	C370.220123,344.563721 367.638458,347.066162 366.991577,351.317810 
	C366.668030,353.444244 366.562317,355.622040 366.561310,357.776703 
	C366.538391,406.602783 366.505951,455.428955 366.569702,504.254944 
	C366.586029,516.767517 363.881622,528.273987 355.371002,537.891785 
	C343.693542,551.088501 328.785828,556.173706 311.883331,552.735352 
	C295.173309,549.336182 283.226196,539.060120 278.109589,522.388855 
	C276.293579,516.471802 275.592224,510.001923 275.566711,503.779572 
	C275.367310,455.120941 275.462708,406.461121 275.436646,357.801666 
	C275.435425,355.481262 275.365173,353.120544 274.943756,350.849762 
	C274.244843,347.083435 271.867004,344.669800 268.050110,344.040833 
	C265.766632,343.664551 263.416077,343.564240 261.095581,343.563019 
	C212.436127,343.537415 163.776672,343.531769 115.117233,343.553680 
	C105.352905,343.558075 96.055237,342.043030 87.402710,337.032440 
	C74.004608,329.273743 63.785583,310.758911 65.136757,296.638367 
	C67.052422,276.618713 76.681351,262.181305 95.775887,255.291595 
	C101.849991,253.099915 108.795723,252.601929 115.348106,252.572983 
	C164.006607,252.357925 212.666504,252.460602 261.325958,252.441086 
	C263.315216,252.440292 265.314697,252.305161 267.291565,252.077606 
	C271.835480,251.554565 274.463715,248.882370 275.028900,244.428223 
	C275.404053,241.471558 275.329559,238.457825 275.456360,234.974426 
z"/>
</svg>