<svg version="1.1" id="Layer_1" xmlns="http://www.w3.org/2000/svg" xmlns:xlink="http://www.w3.org/1999/xlink" x="0px" y="0px"
	 width="100%" viewBox="0 0 640 595" enable-background="new 0 0 640 595" xml:space="preserve">
<path fill="transparent" opacitySector="1.000000" stroke="none" 
	d="
M357.000000,596.000000 
	C238.000015,596.000000 119.500046,596.000000 1.000048,596.000000 
	C1.000032,397.666718 1.000032,199.333450 1.000016,1.000128 
	C214.333237,1.000085 427.666473,1.000085 640.999756,1.000043 
	C640.999878,199.333206 640.999878,397.666412 640.999939,595.999817 
	C546.500000,596.000000 452.000000,596.000000 357.000000,596.000000 
M413.476746,41.999290 
	C349.988129,41.999298 286.499512,41.997890 223.010895,42.000534 
	C210.612823,42.001053 205.001144,47.581345 205.000961,59.921055 
	C204.998535,222.892014 204.999313,385.862976 204.999313,548.833923 
	C204.999313,550.447449 204.999313,552.061035 204.999313,553.769409 
	C218.863541,553.769409 232.267212,553.769409 246.000687,553.769409 
	C246.000687,551.912720 246.000687,550.282654 246.000687,548.652588 
	C246.000717,518.824585 245.991074,488.996552 246.005661,459.168518 
	C246.011185,447.866943 251.907333,442.007782 263.266724,442.004700 
	C301.593231,441.994263 339.919739,441.997406 378.246246,442.002686 
	C390.283142,442.004333 395.992584,447.687775 395.996307,459.687195 
	C396.005493,489.348572 395.999329,519.009949 395.999329,548.671326 
	C395.999329,550.419373 395.999329,552.167419 395.999329,553.650208 
	C410.105377,553.650208 423.511902,553.650208 437.000671,553.650208 
	C437.000671,551.305176 437.000671,549.310303 437.000671,547.315430 
	C437.000671,386.344116 436.881775,225.372604 437.179169,64.401833 
	C437.209869,47.769196 431.761597,40.590710 413.476746,41.999290 
M577.000305,385.500000 
	C577.000305,343.521271 577.005615,301.542572 576.996765,259.563843 
	C576.994263,247.840225 571.224915,242.007202 559.634277,242.003143 
	C530.315735,241.992874 500.997162,241.999680 471.678619,241.999664 
	C470.231049,241.999664 468.783478,241.999649 467.349976,241.999649 
	C467.349976,346.269318 467.349976,450.088745 467.349976,554.000244 
	C498.179962,554.000244 528.659729,554.004333 559.139465,553.998230 
	C571.407471,553.995789 576.997375,548.338440 576.998474,535.924622 
	C577.002747,486.116425 577.000305,436.308197 577.000305,385.500000 
M103.500000,241.999649 
	C96.503502,241.999680 89.506989,241.992798 82.510498,242.001251 
	C70.812004,242.015381 65.003868,247.773987 65.003098,259.413361 
	C64.996971,351.867828 64.996239,444.322327 65.004128,536.776794 
	C65.005096,548.087402 70.905449,553.989624 82.209808,553.995239 
	C111.695282,554.010010 141.180771,554.003601 170.666245,553.990356 
	C172.087540,553.989746 173.508759,553.844116 174.703476,553.778442 
	C174.703476,449.603790 174.703476,345.901184 174.703476,241.999649 
	C151.104782,241.999649 127.802391,241.999649 103.500000,241.999649 
M366.000000,510.500000 
	C366.000000,497.737762 366.000000,484.975494 366.000000,472.287994 
	C355.687378,472.287994 345.949097,472.287994 336.285889,472.287994 
	C336.285889,499.644867 336.285889,526.712769 336.285889,553.712036 
	C346.312683,553.712036 356.050903,553.712036 366.000000,553.712036 
	C366.000000,539.450073 366.000000,525.475037 366.000000,510.500000 
M306.000000,486.504272 
	C306.000000,481.737183 306.000000,476.970123 306.000000,472.288513 
	C295.686432,472.288513 285.948090,472.288513 276.286499,472.288513 
	C276.286499,499.645935 276.286499,526.713928 276.286499,553.711426 
	C286.313995,553.711426 296.052277,553.711426 306.000000,553.711426 
	C306.000000,531.450073 306.000000,509.476685 306.000000,486.504272 
z"/>
<path fill="#fff" opacitySector="1.000000" stroke="none" 
	d="
M413.970947,41.999290 
	C431.761597,40.590710 437.209869,47.769196 437.179169,64.401833 
	C436.881775,225.372604 437.000671,386.344116 437.000671,547.315430 
	C437.000671,549.310303 437.000671,551.305176 437.000671,553.650208 
	C423.511902,553.650208 410.105377,553.650208 395.999329,553.650208 
	C395.999329,552.167419 395.999329,550.419373 395.999329,548.671326 
	C395.999329,519.009949 396.005493,489.348572 395.996307,459.687195 
	C395.992584,447.687775 390.283142,442.004333 378.246246,442.002686 
	C339.919739,441.997406 301.593231,441.994263 263.266724,442.004700 
	C251.907333,442.007782 246.011185,447.866943 246.005661,459.168518 
	C245.991074,488.996552 246.000717,518.824585 246.000687,548.652588 
	C246.000687,550.282654 246.000687,551.912720 246.000687,553.769409 
	C232.267212,553.769409 218.863541,553.769409 204.999313,553.769409 
	C204.999313,552.061035 204.999313,550.447449 204.999313,548.833923 
	C204.999313,385.862976 204.998535,222.892014 205.000961,59.921055 
	C205.001144,47.581345 210.612823,42.001053 223.010895,42.000534 
	C286.499512,41.997890 349.988129,41.999298 413.970947,41.999290 
M365.997101,188.738800 
	C365.997101,197.561203 365.976990,206.383652 366.002380,215.205978 
	C366.031250,225.230820 372.204254,232.063812 381.116913,231.990570 
	C389.837036,231.918900 395.953125,225.161560 395.994629,215.467682 
	C396.033112,206.478989 396.033783,197.489868 395.994415,188.501190 
	C395.951996,178.818039 389.816620,172.062180 381.092529,172.005432 
	C372.533997,171.949738 366.496277,178.271515 365.997101,188.738800 
M311.268433,228.295303 
	C316.449524,232.452209 322.058197,233.308228 327.983429,230.140503 
	C333.687042,227.091248 336.055786,222.077316 336.016998,215.720016 
	C335.961060,206.554001 336.044891,197.387131 335.990997,188.221069 
	C335.934753,178.657364 329.532562,171.879913 320.782227,172.005432 
	C312.232697,172.128067 306.061890,178.823853 306.008453,188.150681 
	C305.956879,197.150101 306.099762,206.151657 305.956299,215.149078 
	C305.877808,220.072495 307.190063,224.322861 311.268433,228.295303 
M259.766785,231.961594 
	C269.908630,231.724899 275.927917,225.777054 275.990173,215.802582 
	C276.048401,206.475098 276.065002,197.146423 275.984741,187.819260 
	C275.905609,178.622543 269.462524,171.945648 260.893890,172.005432 
	C252.338745,172.065125 246.070801,178.757339 246.010086,188.025436 
	C245.951157,197.019775 245.982346,206.014832 246.001114,215.009506 
	C246.020996,224.537109 249.553833,229.127716 259.766785,231.961594 
M245.997025,299.467804 
	C245.997635,301.797302 245.959793,304.127594 246.005692,306.456207 
	C246.180130,315.308533 252.507965,321.912415 260.859497,321.990570 
	C269.191467,322.068542 275.848114,315.477570 275.967163,306.733063 
	C276.100769,296.917694 276.097961,287.097809 275.968201,277.282318 
	C275.852325,268.514679 269.233734,261.940552 260.881683,262.005432 
	C252.525162,262.070343 246.134842,268.667511 246.017517,277.512817 
	C245.924835,284.500122 245.997696,291.489594 245.997025,299.467804 
M333.218262,315.552185 
	C334.146423,312.256470 335.740509,308.987671 335.875031,305.659882 
	C336.244873,296.508881 336.046478,287.332855 335.990417,278.167236 
	C335.933289,268.828033 329.775269,262.138489 321.229462,262.005402 
	C312.474182,261.869049 306.059845,268.649628 306.007996,278.202332 
	C305.958252,287.368011 306.054932,296.534698 305.978577,305.700012 
	C305.919861,312.749664 308.875519,317.938141 315.318939,320.814178 
	C321.437683,323.545258 327.366760,321.837402 333.218262,315.552185 
M396.002930,294.496796 
	C396.000549,288.673340 396.112091,282.847107 395.968842,277.027130 
	C395.759979,268.543030 389.279022,262.076813 381.126587,262.005432 
	C372.972137,261.934021 366.202881,268.372498 366.049377,276.768188 
	C365.863861,286.914246 365.863007,297.068848 366.049194,307.214874 
	C366.203094,315.603180 372.981293,322.058289 381.118530,321.990570 
	C389.061829,321.924500 395.588837,315.622314 395.954834,307.472504 
	C396.133820,303.487091 395.996918,299.487488 396.002930,294.496796 
M254.405228,410.370911 
	C266.281036,414.766998 275.930573,408.115753 275.993896,395.442413 
	C276.039673,386.277649 276.057526,377.112091 275.987152,367.947662 
	C275.916168,358.701172 269.574097,352.014587 261.012512,352.005432 
	C252.447632,351.996277 246.078842,358.690186 246.011917,367.916656 
	C245.945450,377.081177 246.080505,386.247498 245.968506,395.411133 
	C245.890854,401.764801 248.177048,406.724243 254.405228,410.370911 
M336.002960,392.402496 
	C336.000336,383.914978 336.128754,375.424835 335.958191,366.940674 
	C335.787903,358.472107 329.197174,352.026459 321.034790,352.005432 
	C312.867645,351.984406 306.185638,358.430389 306.043701,366.865082 
	C305.872894,377.013916 305.865387,387.170441 306.053406,397.318726 
	C306.197327,405.087708 312.199524,411.291382 319.730530,411.959290 
	C327.185211,412.620483 334.187561,407.400055 335.704315,399.829590 
	C336.123230,397.738861 335.920471,395.523621 336.002960,392.402496 
M365.997040,380.501740 
	C366.001892,386.158752 365.845612,391.821564 366.050079,397.471344 
	C366.344330,405.600830 372.935944,411.925232 380.876343,411.990570 
	C388.812988,412.055878 395.695374,405.814575 395.910217,397.714294 
	C396.188049,387.239685 396.185913,376.746643 395.910522,366.271881 
	C395.697784,358.181274 388.807587,351.937286 380.869324,352.005432 
	C372.930328,352.073578 366.373383,358.405182 366.042023,366.526672 
	C365.865814,370.845612 366.001892,375.177277 365.997040,380.501740 
M366.199036,94.249870 
	C366.131775,104.738899 366.004547,115.227989 366.014893,125.716942 
	C366.024353,135.295868 372.400421,142.076828 381.141449,141.990555 
	C389.681976,141.906265 395.925385,135.211395 395.988922,125.929787 
	C396.051575,116.770157 396.032227,107.609650 395.994263,98.449753 
	C395.958374,89.789131 391.199951,83.627350 383.517120,82.174675 
	C376.173187,80.786072 369.455292,85.218178 366.199036,94.249870 
M313.717712,83.963058 
	C308.181335,87.270538 305.885864,92.221802 305.967224,98.580681 
	C306.084473,107.744095 305.945038,116.910492 306.012024,126.074913 
	C306.079529,135.306488 312.446655,141.999924 321.012848,141.990555 
	C329.570740,141.981201 335.915497,135.290878 335.987061,126.045395 
	C336.057983,116.881035 336.039612,107.715523 335.993988,98.550842 
	C335.930878,85.876640 326.297638,79.234604 313.717712,83.963058 
M245.997025,115.494553 
	C245.998596,119.321396 245.910278,123.150826 246.020126,126.974556 
	C246.263412,135.443222 252.726044,141.924286 260.877838,141.990555 
	C269.017395,142.056702 275.782898,135.623108 275.945404,127.214622 
	C276.141479,117.069008 276.140411,106.913849 275.945221,96.768196 
	C275.783539,88.363937 269.013123,81.934494 260.867401,82.005424 
	C252.711105,82.076462 246.223892,88.554863 246.027344,97.027046 
	C245.892303,102.847404 245.998611,108.673355 245.997025,115.494553 
z"/>
<path fill="#fff" opacitySector="1.000000" stroke="none" 
	d="
M577.000305,386.000000 
	C577.000305,436.308197 577.002747,486.116425 576.998474,535.924622 
	C576.997375,548.338440 571.407471,553.995789 559.139465,553.998230 
	C528.659729,554.004333 498.179962,554.000244 467.349976,554.000244 
	C467.349976,450.088745 467.349976,346.269318 467.349976,241.999649 
	C468.783478,241.999649 470.231049,241.999664 471.678619,241.999664 
	C500.997162,241.999680 530.315735,241.992874 559.634277,242.003143 
	C571.224915,242.007202 576.994263,247.840225 576.996765,259.563843 
	C577.005615,301.542572 577.000305,343.521271 577.000305,386.000000 
M536.540405,313.446808 
	C533.569275,305.240906 526.840088,300.792572 519.485535,302.172638 
	C511.811920,303.612579 507.033813,309.795258 507.005188,318.439148 
	C506.973206,328.098236 506.843201,337.761169 507.059784,347.415619 
	C507.242584,355.564789 513.893066,361.906738 521.841003,361.990936 
	C529.786682,362.075134 536.728149,355.835052 536.902527,347.729095 
	C537.142334,336.581116 536.854980,325.421814 536.540405,313.446808 
M533.314636,397.266968 
	C528.469421,392.087097 522.603699,390.445374 516.109924,393.285889 
	C509.669464,396.103088 506.871185,401.478943 506.966522,408.527618 
	C507.090515,417.692444 506.947449,426.860565 507.010895,436.026642 
	C507.074951,445.277344 513.404480,451.974091 521.968079,451.990906 
	C530.533264,452.007690 536.913147,445.321136 536.986511,436.086670 
	C537.060669,426.754089 537.285522,417.407440 536.856262,408.094086 
	C536.696655,404.632568 534.869568,401.247955 533.314636,397.266968 
z"/>
<path fill="#fff" opacitySector="1.000000" stroke="none" 
	d="
M104.000000,241.999649 
	C127.802391,241.999649 151.104782,241.999649 174.703476,241.999649 
	C174.703476,345.901184 174.703476,449.603790 174.703476,553.778442 
	C173.508759,553.844116 172.087540,553.989746 170.666245,553.990356 
	C141.180771,554.003601 111.695282,554.010010 82.209808,553.995239 
	C70.905449,553.989624 65.005096,548.087402 65.004128,536.776794 
	C64.996239,444.322327 64.996971,351.867828 65.003098,259.413361 
	C65.003868,247.773987 70.812004,242.015381 82.510498,242.001251 
	C89.506989,241.992798 96.503502,241.999680 104.000000,241.999649 
M135.002808,346.187836 
	C135.002869,336.864990 135.045151,327.541931 134.991302,318.219391 
	C134.936142,308.667908 128.547882,301.895081 119.808609,302.005066 
	C111.265953,302.112610 105.064110,308.804657 105.008850,318.096802 
	C104.954399,327.252838 104.967827,336.409576 105.004974,345.565765 
	C105.042435,354.799500 110.686523,361.386200 118.980972,361.969421 
	C127.437897,362.564056 133.878296,356.584595 135.002808,346.187836 
M134.913727,405.112915 
	C132.344238,395.939972 126.090393,391.063812 118.197060,392.078857 
	C110.009125,393.131775 105.014923,399.601685 104.999687,409.214691 
	C104.985703,418.039398 104.961922,426.864319 105.006325,435.688812 
	C105.054573,445.278137 111.369263,452.056458 120.106293,451.990936 
	C128.829346,451.925476 134.960052,445.166565 134.993362,435.472412 
	C135.027115,425.648926 134.981628,415.825195 134.913727,405.112915 
z"/>
<path fill="#fff" opacitySector="1.000000" stroke="none" 
	d="
M366.000000,511.000000 
	C366.000000,525.475037 366.000000,539.450073 366.000000,553.712036 
	C356.050903,553.712036 346.312683,553.712036 336.285889,553.712036 
	C336.285889,526.712769 336.285889,499.644867 336.285889,472.287994 
	C345.949097,472.287994 355.687378,472.287994 366.000000,472.287994 
	C366.000000,484.975494 366.000000,497.737762 366.000000,511.000000 
z"/>
<path fill="#fff" opacitySector="1.000000" stroke="none" 
	d="
M306.000000,487.003784 
	C306.000000,509.476685 306.000000,531.450073 306.000000,553.711426 
	C296.052277,553.711426 286.313995,553.711426 276.286499,553.711426 
	C276.286499,526.713928 276.286499,499.645935 276.286499,472.288513 
	C285.948090,472.288513 295.686432,472.288513 306.000000,472.288513 
	C306.000000,476.970123 306.000000,481.737183 306.000000,487.003784 
z"/>
<path fill="#000" opacitySector="1.000000" stroke="none" 
	d="
M365.997253,188.274750 
	C366.496277,178.271515 372.533997,171.949738 381.092529,172.005432 
	C389.816620,172.062180 395.951996,178.818039 395.994415,188.501190 
	C396.033783,197.489868 396.033112,206.478989 395.994629,215.467682 
	C395.953125,225.161560 389.837036,231.918900 381.116913,231.990570 
	C372.204254,232.063812 366.031250,225.230820 366.002380,215.205978 
	C365.976990,206.383652 365.997101,197.561203 365.997253,188.274750 
z"/>
<path fill="#000" opacitySector="1.000000" stroke="none" 
	d="
M310.974030,228.068695 
	C307.190063,224.322861 305.877808,220.072495 305.956299,215.149078 
	C306.099762,206.151657 305.956879,197.150101 306.008453,188.150681 
	C306.061890,178.823853 312.232697,172.128067 320.782227,172.005432 
	C329.532562,171.879913 335.934753,178.657364 335.990997,188.221069 
	C336.044891,197.387131 335.961060,206.554001 336.016998,215.720016 
	C336.055786,222.077316 333.687042,227.091248 327.983429,230.140503 
	C322.058197,233.308228 316.449524,232.452209 310.974030,228.068695 
z"/>
<path fill="#000" opacitySector="1.000000" stroke="none" 
	d="
M259.354065,231.929016 
	C249.553833,229.127716 246.020996,224.537109 246.001114,215.009506 
	C245.982346,206.014832 245.951157,197.019775 246.010086,188.025436 
	C246.070801,178.757339 252.338745,172.065125 260.893890,172.005432 
	C269.462524,171.945648 275.905609,178.622543 275.984741,187.819260 
	C276.065002,197.146423 276.048401,206.475098 275.990173,215.802582 
	C275.927917,225.777054 269.908630,231.724899 259.354065,231.929016 
z"/>
<path fill="#000" opacitySector="1.000000" stroke="none" 
	d="
M245.997025,298.972961 
	C245.997696,291.489594 245.924835,284.500122 246.017517,277.512817 
	C246.134842,268.667511 252.525162,262.070343 260.881683,262.005432 
	C269.233734,261.940552 275.852325,268.514679 275.968201,277.282318 
	C276.097961,287.097809 276.100769,296.917694 275.967163,306.733063 
	C275.848114,315.477570 269.191467,322.068542 260.859497,321.990570 
	C252.507965,321.912415 246.180130,315.308533 246.005692,306.456207 
	C245.959793,304.127594 245.997635,301.797302 245.997025,298.972961 
z"/>
<path fill="#000" opacitySector="1.000000" stroke="none" 
	d="
M333.006531,315.861572 
	C327.366760,321.837402 321.437683,323.545258 315.318939,320.814178 
	C308.875519,317.938141 305.919861,312.749664 305.978577,305.700012 
	C306.054932,296.534698 305.958252,287.368011 306.007996,278.202332 
	C306.059845,268.649628 312.474182,261.869049 321.229462,262.005402 
	C329.775269,262.138489 335.933289,268.828033 335.990417,278.167236 
	C336.046478,287.332855 336.244873,296.508881 335.875031,305.659882 
	C335.740509,308.987671 334.146423,312.256470 333.006531,315.861572 
z"/>
<path fill="#000" opacitySector="1.000000" stroke="none" 
	d="
M396.002960,294.995544 
	C395.996918,299.487488 396.133820,303.487091 395.954834,307.472504 
	C395.588837,315.622314 389.061829,321.924500 381.118530,321.990570 
	C372.981293,322.058289 366.203094,315.603180 366.049194,307.214874 
	C365.863007,297.068848 365.863861,286.914246 366.049377,276.768188 
	C366.202881,268.372498 372.972137,261.934021 381.126587,262.005432 
	C389.279022,262.076813 395.759979,268.543030 395.968842,277.027130 
	C396.112091,282.847107 396.000549,288.673340 396.002960,294.995544 
z"/>
<path fill="#000" opacitySector="1.000000" stroke="none" 
	d="
M254.062317,410.199646 
	C248.177048,406.724243 245.890854,401.764801 245.968506,395.411133 
	C246.080505,386.247498 245.945450,377.081177 246.011917,367.916656 
	C246.078842,358.690186 252.447632,351.996277 261.012512,352.005432 
	C269.574097,352.014587 275.916168,358.701172 275.987152,367.947662 
	C276.057526,377.112091 276.039673,386.277649 275.993896,395.442413 
	C275.930573,408.115753 266.281036,414.766998 254.062317,410.199646 
z"/>
<path fill="#000" opacitySector="1.000000" stroke="none" 
	d="
M336.002960,392.884003 
	C335.920471,395.523621 336.123230,397.738861 335.704315,399.829590 
	C334.187561,407.400055 327.185211,412.620483 319.730530,411.959290 
	C312.199524,411.291382 306.197327,405.087708 306.053406,397.318726 
	C305.865387,387.170441 305.872894,377.013916 306.043701,366.865082 
	C306.185638,358.430389 312.867645,351.984406 321.034790,352.005432 
	C329.197174,352.026459 335.787903,358.472107 335.958191,366.940674 
	C336.128754,375.424835 336.000336,383.914978 336.002960,392.884003 
z"/>
<path fill="#000" opacitySector="1.000000" stroke="none" 
	d="
M365.997040,380.002472 
	C366.001892,375.177277 365.865814,370.845612 366.042023,366.526672 
	C366.373383,358.405182 372.930328,352.073578 380.869324,352.005432 
	C388.807587,351.937286 395.697784,358.181274 395.910522,366.271881 
	C396.185913,376.746643 396.188049,387.239685 395.910217,397.714294 
	C395.695374,405.814575 388.812988,412.055878 380.876343,411.990570 
	C372.935944,411.925232 366.344330,405.600830 366.050079,397.471344 
	C365.845612,391.821564 366.001892,386.158752 365.997040,380.002472 
z"/>
<path fill="#000" opacitySector="1.000000" stroke="none" 
	d="
M366.322266,93.843742 
	C369.455292,85.218178 376.173187,80.786072 383.517120,82.174675 
	C391.199951,83.627350 395.958374,89.789131 395.994263,98.449753 
	C396.032227,107.609650 396.051575,116.770157 395.988922,125.929787 
	C395.925385,135.211395 389.681976,141.906265 381.141449,141.990555 
	C372.400421,142.076828 366.024353,135.295868 366.014893,125.716942 
	C366.004547,115.227989 366.131775,104.738899 366.322266,93.843742 
z"/>
<path fill="#000" opacitySector="1.000000" stroke="none" 
	d="
M314.059906,83.789383 
	C326.297638,79.234604 335.930878,85.876640 335.993988,98.550842 
	C336.039612,107.715523 336.057983,116.881035 335.987061,126.045395 
	C335.915497,135.290878 329.570740,141.981201 321.012848,141.990555 
	C312.446655,141.999924 306.079529,135.306488 306.012024,126.074913 
	C305.945038,116.910492 306.084473,107.744095 305.967224,98.580681 
	C305.885864,92.221802 308.181335,87.270538 314.059906,83.789383 
z"/>
<path fill="#000" opacitySector="1.000000" stroke="none" 
	d="
M245.997025,114.995682 
	C245.998611,108.673355 245.892303,102.847404 246.027344,97.027046 
	C246.223892,88.554863 252.711105,82.076462 260.867401,82.005424 
	C269.013123,81.934494 275.783539,88.363937 275.945221,96.768196 
	C276.140411,106.913849 276.141479,117.069008 275.945404,127.214622 
	C275.782898,135.623108 269.017395,142.056702 260.877838,141.990555 
	C252.726044,141.924286 246.263412,135.443222 246.020126,126.974556 
	C245.910278,123.150826 245.998596,119.321396 245.997025,114.995682 
z"/>
<path fill="#000" opacitySector="1.000000" stroke="none" 
	d="
M536.666992,313.857086 
	C536.854980,325.421814 537.142334,336.581116 536.902527,347.729095 
	C536.728149,355.835052 529.786682,362.075134 521.841003,361.990936 
	C513.893066,361.906738 507.242584,355.564789 507.059784,347.415619 
	C506.843201,337.761169 506.973206,328.098236 507.005188,318.439148 
	C507.033813,309.795258 511.811920,303.612579 519.485535,302.172638 
	C526.840088,300.792572 533.569275,305.240906 536.666992,313.857086 
z"/>
<path fill="#000" opacitySector="1.000000" stroke="none" 
	d="
M533.558716,397.547607 
	C534.869568,401.247955 536.696655,404.632568 536.856262,408.094086 
	C537.285522,417.407440 537.060669,426.754089 536.986511,436.086670 
	C536.913147,445.321136 530.533264,452.007690 521.968079,451.990906 
	C513.404480,451.974091 507.074951,445.277344 507.010895,436.026642 
	C506.947449,426.860565 507.090515,417.692444 506.966522,408.527618 
	C506.871185,401.478943 509.669464,396.103088 516.109924,393.285889 
	C522.603699,390.445374 528.469421,392.087097 533.558716,397.547607 
z"/>
<path fill="#000" opacitySector="1.000000" stroke="none" 
	d="
M134.998947,346.644592 
	C133.878296,356.584595 127.437897,362.564056 118.980972,361.969421 
	C110.686523,361.386200 105.042435,354.799500 105.004974,345.565765 
	C104.967827,336.409576 104.954399,327.252838 105.008850,318.096802 
	C105.064110,308.804657 111.265953,302.112610 119.808609,302.005066 
	C128.547882,301.895081 134.936142,308.667908 134.991302,318.219391 
	C135.045151,327.541931 135.002869,336.864990 134.998947,346.644592 
z"/>
<path fill="#000" opacitySector="1.000000" stroke="none" 
	d="
M134.942291,405.557251 
	C134.981628,415.825195 135.027115,425.648926 134.993362,435.472412 
	C134.960052,445.166565 128.829346,451.925476 120.106293,451.990936 
	C111.369263,452.056458 105.054573,445.278137 105.006325,435.688812 
	C104.961922,426.864319 104.985703,418.039398 104.999687,409.214691 
	C105.014923,399.601685 110.009125,393.131775 118.197060,392.078857 
	C126.090393,391.063812 132.344238,395.939972 134.942291,405.557251 
z"/>
</svg>