<?xml version="1.0" standalone="no"?>
<!DOCTYPE svg PUBLIC "-//W3C//DTD SVG 20010904//EN"
 "http://www.w3.org/TR/2001/REC-SVG-20010904/DTD/svg10.dtd">
<svg version="1.0" xmlns="http://www.w3.org/2000/svg"
 width="640.000000pt" height="595.000000pt" viewBox="0 0 640.000000 595.000000"
 preserveAspectRatio="xMidYMid meet">

<g transform="translate(0.000000,595.000000) scale(0.100000,-0.100000)"
fill="#fff" stroke="none">
<path d="M3117 5206 c-55 -20 -103 -61 -134 -114 l-28 -47 -3 -280 -4 -280
-86 -42 c-159 -76 -268 -186 -347 -348 -56 -114 -76 -201 -76 -329 0 -155 37
-288 115 -410 l36 -56 -445 -955 c-245 -525 -449 -975 -455 -1000 -15 -68 6
-151 53 -202 l20 -23 -67 -145 c-70 -150 -75 -175 -40 -209 8 -9 27 -19 42
-23 50 -12 72 13 141 164 66 142 66 142 100 143 58 0 111 22 160 66 46 41 68
85 482 973 l434 931 35 -7 c45 -10 255 -10 300 0 l35 7 435 -932 c239 -513
446 -945 459 -962 34 -39 115 -76 171 -76 l45 -1 65 -140 c35 -77 73 -147 84
-155 29 -20 69 -17 94 6 42 39 39 60 -34 215 l-67 145 20 23 c47 51 68 134 53
202 -6 25 -211 475 -455 1000 l-445 954 36 57 c78 122 115 255 115 411 0 127
-19 210 -76 328 -78 161 -187 271 -347 348 l-87 42 0 260 c-1 146 -6 276 -11
297 -16 56 -69 119 -124 147 -58 30 -144 37 -199 17z m144 -175 l29 -29 0
-239 0 -238 -90 0 -90 0 0 238 0 239 29 29 c20 20 39 29 61 29 22 0 41 -9 61
-29z m127 -696 c189 -60 345 -225 397 -421 19 -71 21 -220 5 -289 -23 -96 -88
-212 -159 -284 -131 -131 -276 -187 -461 -178 -128 6 -203 30 -306 99 -95 63
-156 133 -203 233 -50 103 -62 158 -62 269 1 157 54 294 156 404 165 179 401
241 633 167z m-618 -1202 c31 -21 65 -43 75 -49 17 -9 -19 -91 -410 -928 -264
-565 -436 -922 -449 -931 -71 -50 -163 24 -133 107 16 45 851 1838 856 1838 2
0 29 -17 61 -37z m1345 -865 c231 -496 426 -917 432 -936 30 -83 -62 -157
-133 -107 -13 9 -185 366 -449 931 -391 838 -427 919 -410 928 10 6 43 28 74
48 31 21 58 37 61 38 3 0 194 -406 425 -902z"/>
<path d="M3075 4167 c-93 -31 -191 -109 -239 -191 -111 -190 -52 -444 132
-566 268 -178 633 5 650 325 7 138 -33 240 -133 334 -82 78 -147 104 -270 108
-64 2 -114 -2 -140 -10z m243 -173 c190 -95 188 -365 -3 -467 -31 -17 -58 -22
-115 -22 -57 0 -84 5 -115 22 -147 79 -191 265 -92 395 73 95 215 127 325 72z"/>
</g>
</svg>
