<svg version="1.1" id="Layer_1" xmlns="http://www.w3.org/2000/svg" xmlns:xlink="http://www.w3.org/1999/xlink" x="0px" y="0px"
	 width="100%" viewBox="0 0 769 666" enable-background="new 0 0 769 666" xml:space="preserve">
<path fill="transparent" opacity="1.000000" stroke="none" 
	d="
M382.000000,667.000000 
	C254.666672,667.000000 127.833336,667.000000 1.000000,667.000000 
	C1.000000,445.000000 1.000000,223.000000 1.000000,1.000000 
	C257.333344,1.000000 513.666687,1.000000 770.000000,1.000000 
	C770.000000,223.000000 770.000000,445.000000 770.000000,667.000000 
	C640.833313,667.000000 511.666656,667.000000 382.000000,667.000000 
M537.300781,148.199356 
	C519.148438,130.068008 501.003021,111.929688 482.840820,93.808228 
	C473.796509,84.784195 467.392029,84.855690 458.245209,93.992653 
	C377.624908,174.526047 296.980713,255.035614 216.473022,335.681458 
	C213.920242,338.238586 212.009689,341.987579 211.070480,345.518921 
	C202.418259,378.050720 194.049316,410.657837 185.591904,443.241516 
	C182.081085,456.767548 190.188873,464.953003 203.687439,461.428467 
	C235.488419,453.124969 267.258820,444.703064 299.092285,436.526459 
	C304.624176,435.105530 309.126892,432.579346 313.146759,428.552338 
	C358.460205,383.157593 403.855194,337.844208 449.226044,292.506744 
	C483.754974,258.003143 518.285339,223.500961 552.804749,188.987823 
	C562.195740,179.598572 562.141785,173.026901 552.654419,163.532028 
	C547.708679,158.582321 542.752441,153.643158 537.300781,148.199356 
M400.500214,508.337524 
	C390.334076,508.337524 380.167938,508.337555 370.001801,508.337555 
	C310.671570,508.337585 251.341003,508.252228 192.011688,508.484192 
	C186.719147,508.504883 180.911057,509.561859 176.262909,511.938141 
	C168.274429,516.022034 165.026489,525.874268 167.475586,534.302307 
	C170.140167,543.471985 178.177673,549.085266 188.774261,549.084473 
	C321.100494,549.074219 453.426697,549.053650 585.752930,549.034241 
	C586.752808,549.034119 587.755127,549.054688 588.752136,548.995361 
	C597.619263,548.467468 604.454163,543.205383 607.278931,534.752136 
	C609.859924,527.028320 607.381592,518.965271 600.822510,513.215515 
	C595.941345,508.936676 590.074768,508.335785 583.990723,508.336029 
	C523.160583,508.338531 462.330414,508.337555 400.500214,508.337524 
z"/>
<path fill="#010101" opacity="1.000000" stroke="none" 
	d="
M537.550842,148.449295 
	C542.752441,153.643158 547.708679,158.582321 552.654419,163.532028 
	C562.141785,173.026901 562.195740,179.598572 552.804749,188.987823 
	C518.285339,223.500961 483.754974,258.003143 449.226044,292.506744 
	C403.855194,337.844208 358.460205,383.157593 313.146759,428.552338 
	C309.126892,432.579346 304.624176,435.105530 299.092285,436.526459 
	C267.258820,444.703064 235.488419,453.124969 203.687439,461.428467 
	C190.188873,464.953003 182.081085,456.767548 185.591904,443.241516 
	C194.049316,410.657837 202.418259,378.050720 211.070480,345.518921 
	C212.009689,341.987579 213.920242,338.238586 216.473022,335.681458 
	C296.980713,255.035614 377.624908,174.526047 458.245209,93.992653 
	C467.392029,84.855690 473.796509,84.784195 482.840820,93.808228 
	C501.003021,111.929688 519.148438,130.068008 537.550842,148.449295 
z"/>
<path fill="#040404" opacity="1.000000" stroke="none" 
	d="
M401.000244,508.337524 
	C462.330414,508.337555 523.160583,508.338531 583.990723,508.336029 
	C590.074768,508.335785 595.941345,508.936676 600.822510,513.215515 
	C607.381592,518.965271 609.859924,527.028320 607.278931,534.752136 
	C604.454163,543.205383 597.619263,548.467468 588.752136,548.995361 
	C587.755127,549.054688 586.752808,549.034119 585.752930,549.034241 
	C453.426697,549.053650 321.100494,549.074219 188.774261,549.084473 
	C178.177673,549.085266 170.140167,543.471985 167.475586,534.302307 
	C165.026489,525.874268 168.274429,516.022034 176.262909,511.938141 
	C180.911057,509.561859 186.719147,508.504883 192.011688,508.484192 
	C251.341003,508.252228 310.671570,508.337585 370.001801,508.337555 
	C380.167938,508.337555 390.334076,508.337524 401.000244,508.337524 
z"/>
</svg>