<svg version="1.1" id="Layer_1" xmlns="http://www.w3.org/2000/svg" xmlns:xlink="http://www.w3.org/1999/xlink" x="0px" y="0px"
	 width="100%" viewBox="0 0 763 718" enable-background="new 0 0 763 718" xml:space="preserve">
<path fill="transparent" opacity="1.000000" stroke="none" 
	d="
M443.000000,719.000000 
	C295.333344,719.000000 148.166672,719.000000 1.000000,719.000000 
	C1.000000,479.666656 1.000000,240.333328 1.000000,1.000000 
	C255.333328,1.000000 509.666656,1.000000 764.000000,1.000000 
	C764.000000,240.333328 764.000000,479.666656 764.000000,719.000000 
	C657.166687,719.000000 550.333313,719.000000 443.000000,719.000000 
M57.907917,593.556091 
	C57.945774,594.053894 57.925270,594.564331 58.029774,595.047729 
	C69.179222,646.622192 111.692024,681.690186 164.653427,681.813232 
	C283.639069,682.089661 402.626007,681.968811 521.611755,681.707092 
	C530.631714,681.687256 539.904114,680.211731 548.620544,677.816589 
	C594.426086,665.230103 625.888428,624.614563 626.855103,579.346436 
	C627.911560,529.874756 627.209290,480.362579 627.038269,430.868866 
	C626.960022,408.221527 604.643860,391.465057 582.751587,397.188416 
	C565.736267,401.636780 555.437805,415.274292 555.408813,433.787476 
	C555.336792,479.782104 555.379822,525.776917 555.330811,571.771606 
	C555.327271,575.087402 555.391724,578.500183 554.679626,581.702271 
	C550.710754,599.551208 536.677246,610.107422 517.027771,610.111084 
	C399.374603,610.133240 281.721405,610.151123 164.068390,610.012390 
	C159.531403,610.007080 154.738525,609.050537 150.507141,607.402100 
	C135.925095,601.721191 127.850151,589.416748 127.845413,573.662170 
	C127.822960,499.004059 127.834267,424.345978 127.832924,349.687866 
	C127.832130,305.859558 127.755920,262.031097 127.873009,218.203110 
	C127.909119,204.685989 133.844559,194.248978 145.488266,187.148102 
	C153.750717,182.109299 162.752594,182.383743 172.029770,182.446136 
	C215.022888,182.735336 258.019165,182.624863 301.014008,182.533813 
	C311.345459,182.511948 321.300110,180.813995 329.348541,173.468674 
	C340.925323,162.903275 344.749359,147.921661 339.493561,133.892319 
	C334.211884,119.793892 321.181000,110.911575 305.348541,110.896317 
	C257.187469,110.849907 209.026077,110.815956 160.865509,110.981010 
	C154.766159,111.001900 148.593826,111.831139 142.585999,112.973335 
	C92.798271,122.438919 56.260376,165.610687 56.132748,216.387360 
	C55.831165,336.372742 56.011826,456.359406 56.109013,576.345459 
	C56.113426,581.794922 57.208916,587.243408 57.907917,593.556091 
M460.011780,328.511780 
	C515.401245,273.125702 570.790710,217.739594 626.996887,161.536850 
	C626.996887,164.982788 626.995117,166.974365 626.997131,168.965927 
	C627.038391,209.793716 626.916443,250.622650 627.197815,291.448792 
	C627.320190,309.201843 643.127563,324.347900 661.222961,324.926666 
	C679.922485,325.524750 697.025635,311.191376 697.962463,293.325592 
	C698.720703,278.867065 698.623291,264.355835 698.640076,249.867645 
	C698.706116,193.041214 698.696777,136.214645 698.653564,79.388161 
	C698.634155,53.845577 683.841064,39.112011 658.394531,39.098812 
	C654.728333,39.096909 651.062073,39.098465 647.395874,39.098476 
	C582.570312,39.098648 517.744751,39.115280 452.919189,39.083103 
	C441.883148,39.077625 431.850677,41.624161 423.710907,49.596584 
	C413.341797,59.752464 410.115753,74.758072 415.440247,88.280991 
	C420.830597,101.971291 433.570129,110.829453 448.345337,110.852661 
	C489.007019,110.916534 529.668884,110.878510 570.330627,110.880791 
	C571.999390,110.880882 573.668213,110.880806 575.336975,110.880806 
	C574.924255,112.636932 574.192383,113.080162 573.604736,113.667755 
	C478.039124,209.233566 382.482819,304.808716 286.933289,400.390625 
	C284.225189,403.099640 281.467102,405.774506 278.948181,408.654114 
	C268.652924,420.423798 267.360687,437.755463 275.692810,450.921326 
	C288.308899,470.856445 315.069489,473.258057 332.531097,455.851776 
	C374.901672,413.615570 417.190277,371.297180 460.011780,328.511780 
z"/>
<path fill="#020202" opacity="1.000000" stroke="none" 
	d="
M57.852070,593.124268 
	C57.208916,587.243408 56.113426,581.794922 56.109013,576.345459 
	C56.011826,456.359406 55.831165,336.372742 56.132748,216.387360 
	C56.260376,165.610687 92.798271,122.438919 142.585999,112.973335 
	C148.593826,111.831139 154.766159,111.001900 160.865509,110.981010 
	C209.026077,110.815956 257.187469,110.849907 305.348541,110.896317 
	C321.181000,110.911575 334.211884,119.793892 339.493561,133.892319 
	C344.749359,147.921661 340.925323,162.903275 329.348541,173.468674 
	C321.300110,180.813995 311.345459,182.511948 301.014008,182.533813 
	C258.019165,182.624863 215.022888,182.735336 172.029770,182.446136 
	C162.752594,182.383743 153.750717,182.109299 145.488266,187.148102 
	C133.844559,194.248978 127.909119,204.685989 127.873009,218.203110 
	C127.755920,262.031097 127.832130,305.859558 127.832924,349.687866 
	C127.834267,424.345978 127.822960,499.004059 127.845413,573.662170 
	C127.850151,589.416748 135.925095,601.721191 150.507141,607.402100 
	C154.738525,609.050537 159.531403,610.007080 164.068390,610.012390 
	C281.721405,610.151123 399.374603,610.133240 517.027771,610.111084 
	C536.677246,610.107422 550.710754,599.551208 554.679626,581.702271 
	C555.391724,578.500183 555.327271,575.087402 555.330811,571.771606 
	C555.379822,525.776917 555.336792,479.782104 555.408813,433.787476 
	C555.437805,415.274292 565.736267,401.636780 582.751587,397.188416 
	C604.643860,391.465057 626.960022,408.221527 627.038269,430.868866 
	C627.209290,480.362579 627.911560,529.874756 626.855103,579.346436 
	C625.888428,624.614563 594.426086,665.230103 548.620544,677.816589 
	C539.904114,680.211731 530.631714,681.687256 521.611755,681.707092 
	C402.626007,681.968811 283.639069,682.089661 164.653427,681.813232 
	C111.692024,681.690186 69.179222,646.622192 58.029774,595.047729 
	C57.925270,594.564331 57.945774,594.053894 57.852070,593.124268 
z"/>
<path fill="#020202" opacity="1.000000" stroke="none" 
	d="
M459.761841,328.761841 
	C417.190277,371.297180 374.901672,413.615570 332.531097,455.851776 
	C315.069489,473.258057 288.308899,470.856445 275.692810,450.921326 
	C267.360687,437.755463 268.652924,420.423798 278.948181,408.654114 
	C281.467102,405.774506 284.225189,403.099640 286.933289,400.390625 
	C382.482819,304.808716 478.039124,209.233566 573.604736,113.667755 
	C574.192383,113.080162 574.924255,112.636932 575.336975,110.880806 
	C573.668213,110.880806 571.999390,110.880882 570.330627,110.880791 
	C529.668884,110.878510 489.007019,110.916534 448.345337,110.852661 
	C433.570129,110.829453 420.830597,101.971291 415.440247,88.280991 
	C410.115753,74.758072 413.341797,59.752464 423.710907,49.596584 
	C431.850677,41.624161 441.883148,39.077625 452.919189,39.083103 
	C517.744751,39.115280 582.570312,39.098648 647.395874,39.098476 
	C651.062073,39.098465 654.728333,39.096909 658.394531,39.098812 
	C683.841064,39.112011 698.634155,53.845577 698.653564,79.388161 
	C698.696777,136.214645 698.706116,193.041214 698.640076,249.867645 
	C698.623291,264.355835 698.720703,278.867065 697.962463,293.325592 
	C697.025635,311.191376 679.922485,325.524750 661.222961,324.926666 
	C643.127563,324.347900 627.320190,309.201843 627.197815,291.448792 
	C626.916443,250.622650 627.038391,209.793716 626.997131,168.965927 
	C626.995117,166.974365 626.996887,164.982788 626.996887,161.536850 
	C570.790710,217.739594 515.401245,273.125702 459.761841,328.761841 
z"/>
</svg>